<?xml version="1.0" encoding="iso-8859-1"?>
<!-- Uploaded to: SVG Repo, www.svgrepo.com, Generator: SVG Repo Mixer Tools -->
<svg fill="#000000" height="800px" width="800px" version="1.1" id="Layer_1" xmlns="http://www.w3.org/2000/svg" xmlns:xlink="http://www.w3.org/1999/xlink" 
	 viewBox="0 0 512 512" xml:space="preserve">
<g>
	<g>
		<path d="M437.02,74.98C388.667,26.628,324.38,0,256,0C114.509,0,0,114.497,0,256c0,141.491,114.497,256,256,256
			c141.491,0,256-114.497,256-256C512,187.62,485.372,123.333,437.02,74.98z M217.838,311.898l-48.404,32.977
			c-9.15,6.234-21.718-0.268-21.718-11.482c0-10.206,0-148.05,0-152.582c0-11.192,12.54-17.736,21.718-11.482l48.404,32.978
			C217.838,214.076,217.838,299.969,217.838,311.898z M384.924,268.585l-111.977,76.29c-9.15,6.234-21.718-0.268-21.718-11.482
			c0-4.522,0-142.34,0-152.582c0-11.192,12.54-17.736,21.718-11.482l111.977,76.29c3.799,2.588,6.072,6.886,6.072,11.482
			C390.995,261.698,388.723,265.997,384.924,268.585z"/>
	</g>
</g>
</svg>