<?xml version="1.0" encoding="UTF-8" standalone="no"?>
<!-- Uploaded to: SVG Repo, www.svgrepo.com, Generator: SVG Repo Mixer Tools -->

<svg
   fill="#000000"
   width="650"
   height="650"
   viewBox="0 0 416 416"
   version="1.1"
   id="svg802"
   sodipodi:docname="start-stop-icon (original).svg"
   inkscape:version="1.2.2 (732a01da63, 2022-12-09)"
   xmlns:inkscape="http://www.inkscape.org/namespaces/inkscape"
   xmlns:sodipodi="http://sodipodi.sourceforge.net/DTD/sodipodi-0.dtd"
   xmlns="http://www.w3.org/2000/svg"
   xmlns:svg="http://www.w3.org/2000/svg">
  <defs
     id="defs806" />
  <sodipodi:namedview
     id="namedview804"
     pagecolor="#ffffff"
     bordercolor="#111111"
     borderopacity="1"
     inkscape:showpageshadow="0"
     inkscape:pageopacity="0"
     inkscape:pagecheckerboard="1"
     inkscape:deskcolor="#d1d1d1"
     showgrid="false"
     inkscape:zoom="1.28375"
     inkscape:cx="324.8296"
     inkscape:cy="324.8296"
     inkscape:window-width="3440"
     inkscape:window-height="1369"
     inkscape:window-x="-8"
     inkscape:window-y="-8"
     inkscape:window-maximized="1"
     inkscape:current-layer="svg802" />
  <title
     id="title798">ionicons-v5-c</title>
  <path
     d="M 208,0 C 93.31,0 0,93.31 0,208 0,322.69 93.31,416 208,416 322.69,416 416,322.69 416,208 416,93.31 322.69,0 208,0 Z m 80,272 a 16,16 0 0 1 -32,0 V 219 L 144.32,286.44 A 10.78,10.78 0 0 1 128,277.13 V 138.87 a 10.78,10.78 0 0 1 16.32,-9.31 L 256,197 v -53 a 16,16 0 0 1 32,0 z"
     id="path800" />
</svg>
